<svg xmlns="http://www.w3.org/2000/svg" width="142" height="90" viewBox="0 0 142 90"><defs><style>.a,.b{fill:#fff;}.a{font-size:34px;font-family:Helvetica;letter-spacing:0.22em;}.c{opacity:0.5;}</style></defs><g transform="translate(-109 -186)"><text class="a" transform="translate(180 268)"><tspan x="-70.384" y="0">TABUS</tspan></text><g transform="translate(0 -274)"><circle class="b" cx="2.5" cy="2.5" r="2.5" transform="translate(124 460)"/><circle class="b" cx="2.5" cy="2.5" r="2.5" transform="translate(112 473)"/><circle class="b" cx="2.5" cy="2.5" r="2.5" transform="translate(124 473)"/><circle class="b" cx="2.5" cy="2.5" r="2.5" transform="translate(112 486)"/><circle class="b" cx="2.5" cy="2.5" r="2.5" transform="translate(142 460)"/><circle class="b" cx="2.5" cy="2.5" r="2.5" transform="translate(172 460)"/><circle class="b" cx="2.5" cy="2.5" r="2.5" transform="translate(172 473)"/><circle class="b" cx="2.5" cy="2.5" r="2.5" transform="translate(202 460)"/><circle class="b" cx="2.5" cy="2.5" r="2.5" transform="translate(202 486)"/><circle class="b" cx="2.5" cy="2.5" r="2.5" transform="translate(214 486)"/><circle class="b" cx="2.5" cy="2.5" r="2.5" transform="translate(244 460)"/><circle class="b" cx="2.5" cy="2.5" r="2.5" transform="translate(232 473)"/><circle class="b" cx="2.5" cy="2.5" r="2.5" transform="translate(232 486)"/><g class="c"><circle class="b" cx="1" cy="1" r="1" transform="translate(113 461)"/><circle class="b" cx="1" cy="1" r="1" transform="translate(125 487)"/><circle class="b" cx="1" cy="1" r="1" transform="translate(155 461)"/><circle class="b" cx="1" cy="1" r="1" transform="translate(143 474)"/><circle class="b" cx="1" cy="1" r="1" transform="translate(155 474)"/><circle class="b" cx="1" cy="1" r="1" transform="translate(143 487)"/><circle class="b" cx="1" cy="1" r="1" transform="translate(155 487)"/><circle class="b" cx="1" cy="1" r="1" transform="translate(185 461)"/><circle class="b" cx="1" cy="1" r="1" transform="translate(185 474)"/><circle class="b" cx="1" cy="1" r="1" transform="translate(173 487)"/><circle class="b" cx="1" cy="1" r="1" transform="translate(185 487)"/><circle class="b" cx="1" cy="1" r="1" transform="translate(215 461)"/><circle class="b" cx="1" cy="1" r="1" transform="translate(203 474)"/><circle class="b" cx="1" cy="1" r="1" transform="translate(215 474)"/><circle class="b" cx="1" cy="1" r="1" transform="translate(233 461)"/><circle class="b" cx="1" cy="1" r="1" transform="translate(245 474)"/><circle class="b" cx="1" cy="1" r="1" transform="translate(245 487)"/></g></g></g></svg>